<?xml version="1.0" encoding="UTF-8"?>
<svg enable-background="new 0 0 1436.155 1768.196" version="1.1" viewBox="0 0 1436.155 1768.196" xmlns="http://www.w3.org/2000/svg">
 <path d="m1139.4 1613.1c-2.94 0.31-5.87 0.56-8.81 0.75-14.43 0.93-36.54 0.19-47.81-9.4-1.41-1.2-2.65-2.54-3.69-4.03-2.17-4.34-1.82-9.68 0.13-15.35 0.01-0.02 0.01-0.04 0.02-0.05 0.32-0.93 0.69-1.88 1.1-2.83l0.06-0.15c1.17-2.72 2.67-5.5 4.4-8.26 0.04-0.07 0.08-0.14 0.13-0.21 5.63-8.92 13.6-17.61 20.61-23.68 0.05-0.06 0.1-0.1 0.15-0.14 0.4-0.35 0.8-0.69 1.2-1.02 13.97 27.96 14.59 38.47 29.06 39.11 41.77 1.56 158.97-52.74 143.36-86.48-3.54-7.35-7.19-14.63-10.6-22.01 6.56-0.6 12.5-0.86 17.84-0.8 0.85 0 1.68 0.02 2.5 0.05 0.44 0.01 0.88 0.03 1.31 0.04 0.81 0.03 1.6 0.07 2.38 0.12 0.8 0.05 1.6 0.11 2.38 0.17 0.75 0.06 1.49 0.14 2.21 0.22h0.03c2.92 0.32 5.6 0.76 8.04 1.32 0 0 0.01 0.01 0.02 0.01 0.61 0.13 1.19 0.27 1.77 0.43 0.01 0.01 0.02 0.01 0.03 0.01 1.44 0.38 2.79 0.8 4.06 1.27 0.02 0.01 0.04 0.02 0.05 0.02 0.25 0.09 0.51 0.19 0.76 0.29s0.5 0.2 0.74 0.3c0.45 0.19 0.9 0.39 1.33 0.59 0.45 0.21 0.89 0.43 1.31 0.66 0.45 0.24 0.88 0.48 1.29 0.73 21.63 13.13 1.87 44.77-37.7 73.48-0.26 0.19-0.52 0.38-0.79 0.57-35.5 25.55-86.63 48.67-138.12 54.19-0.25 0.03-0.5 0.059-0.75 0.08z" fill="#A6A6A6"/>
 <path d="m1279 1558.3c39.57-28.71 59.33-60.35 37.7-73.48 21.76 13.049 2.77 44.46-37.7 73.48z" fill="#A6A6A6"/>
 <path d="m1084.3 1530.2c-60.68-26.21 35.21-112.98 128.76-119.15 13-1.05 26.38 0.22 38.59 5.02 70.65 32.819-87.42 144.83-167.35 114.13zm88.25-65.47c1.28-13.52-20.42-17.06-23.52-3.44-2.32 5.78 1.67 12.69 7.28 14.77 7.32 3.54 16.92-3.31 16.24-11.33z" fill="#BEBEBE"/>
 <path d="m1156.3 1476c-5.61-2.08-9.6-8.99-7.28-14.77 3.1-13.62 24.8-10.08 23.52 3.44 0.68 8.02-8.92 14.87-16.24 11.33z" fill="#595959"/>
 <path d="m1139.4 1613.1c-26.15 3.04-47.5 0.62-56.62-8.65 11.27 9.59 33.38 10.33 47.81 9.4 2.94-0.19 5.87-0.44 8.81-0.75z" fill="#A6A6A6"/>
 <path d="m1131.3 1571.8c9.46 17.75 123.25-30.91 138.42-61.89-3.83-7.78-7.57-15.6-11.13-23.49 3.11-3.11 5.95-6.49 8.77-9.86 0.42 0.92 0.87 1.86 1.34 2.82 3.41 7.38 7.06 14.66 10.6 22.01 15.61 33.74-101.59 88.04-143.36 86.48-14.47-0.64-15.09-11.15-29.06-39.11l-0.21-0.42c4.59 0.04 9.19 0.13 13.82 0.27 3.62 7.71 7.27 15.42 10.81 23.19z" fill="#585858"/>
 <path d="m1105.5 1549.9c-7.01 6.07-14.98 14.76-20.61 23.68 5.48-8.95 12.66-16.881 20.61-23.68z" fill="#A6A6A6"/>
 <path d="m1079.7 1583.7c0.22-0.51 0.44-1.01 0.67-1.51-0.41 0.95-0.78 1.9-1.1 2.83 0.13-0.44 0.27-0.879 0.43-1.32z" fill="#A6A6A6"/>
 <path d="m1084.3 1530.2c79.93 30.7 238-81.31 167.35-114.13-12.21-4.8-25.59-6.07-38.59-5.02-93.55 6.17-189.44 92.94-128.76 119.15zm46.96 41.65c-3.54-7.77-7.19-15.48-10.81-23.19-4.63-0.14-9.23-0.23-13.82-0.27l0.21 0.42c-0.4 0.33-0.8 0.67-1.2 1.02-0.05 0.04-0.1 0.08-0.15 0.14-7.95 6.8-15.13 14.73-20.61 23.68-0.05 0.07-0.09 0.14-0.13 0.21-1.73 2.76-3.23 5.54-4.4 8.26l-0.06 0.15c-0.23 0.5-0.45 1-0.67 1.51-0.16 0.44-0.3 0.88-0.43 1.32-0.01 0.01-0.01 0.03-0.02 0.05-1.95 5.67-2.3 11.01-0.13 15.35 1.04 1.49 2.28 2.83 3.69 4.03 9.12 9.27 30.47 11.69 56.62 8.65 0.25-0.02 0.5-0.05 0.75-0.08 51.49-5.52 102.62-28.64 138.12-54.19 0.27-0.19 0.53-0.38 0.79-0.57 40.47-29.02 59.46-60.43 37.7-73.48-0.41-0.25-0.84-0.49-1.29-0.73-0.42-0.23-0.86-0.45-1.31-0.66-0.43-0.2-0.88-0.4-1.33-0.59-0.24-0.1-0.49-0.2-0.74-0.3s-0.51-0.2-0.76-0.29c-0.01 0-0.03-0.01-0.05-0.02-1.27-0.47-2.62-0.89-4.06-1.27-0.01 0-0.02 0-0.03-0.01-0.58-0.16-1.16-0.3-1.77-0.43-0.01 0-0.02-0.01-0.02-0.01-2.44-0.56-5.12-1-8.04-1.32h-0.03c-0.72-0.08-1.46-0.16-2.21-0.22-0.78-0.06-1.58-0.12-2.38-0.17-0.78-0.05-1.57-0.09-2.38-0.12-0.43-0.01-0.87-0.03-1.31-0.04-0.82-0.03-1.65-0.05-2.5-0.05-5.34-0.06-11.28 0.2-17.84 0.8-0.47-0.96-0.92-1.9-1.34-2.82-2.82 3.37-5.66 6.75-8.77 9.86 3.56 7.89 7.3 15.71 11.13 23.49-15.17 30.98-128.96 79.64-138.42 61.89zm3.78-152.87c11.67-1.91 22.43-7.25 33.86-10.15-0.33-1.21-0.65-2.42-0.96-3.6 80.4-21 123.74 3.44 112.67 46.89 74.57-0.99 106.38 54.52 21.24 122.48-85.28 65.12-225.68 93.14-248.35 33.41-8.74-23.32 5.84-48.23 22.81-66.25-72.9-37.101 34.54-120.3 58.73-122.78z" fill="#7F7F7F"/>
 <path d="m1027.6 143.63c-1.98 4.25-5.05 8.02-8.89 11.6-0.01 0.01-0.02 0.02-0.03 0.02-5.66 4.26-13.42 6.6-23.24 5.59-49.27-4.63-53.02-5.28-59-9.51-8.75-5.19-14.02-15.48-13.2-25.62-0.34-11.33 7.96-21.35 17.93-25.82 10.22-3.63 21.29-1.25 31.76-0.25 11.72 1.6 23.67 1.73 35.26 4.26 19.41 4.57 25.66 24.65 19.41 39.73z"/>
 <path d="m1018.7 155.23c3.84-3.58 6.91-7.35 8.89-11.6-1.86 4.49-4.83 8.54-8.89 11.6z" fill="#A5A5A5"/>
 <path d="m799 84.486c30.87 5.45 31.49 50.49 1.31 56.79-8.34 1.53-16.88 1.16-25.31 1.66-25.49 0.36-39.03 4.25-51.22-7.61l-0.01-0.01c-4.49-5.56-7.71-10.95-8.33-19.38-0.46-12.53 6.93-25.09 20.68-29.1 7.77-1.75 51.44-3.21 62.88-2.35z"/>
 <path d="m766.82 586.87c2.44 1.2 4.92 2.19 7.28 3.03-3.03-1.04-5.9-2.15-7.28-3.03z" fill="#8196AD"/>
 <path d="m774.68 589.16c0.76 0.29 1.52 0.59 2.27 0.9 0.25 0.1 0.5 0.2 0.74 0.3 0.6 0.25 1.18 0.49 1.74 0.72 0.74 0.31 1.49 0.63 2.23 0.95 0.56 0.24 1.13 0.47 1.7 0.7 0.11 0.05 0.21 0.1 0.32 0.14-0.34-0.09-0.8-0.23-1.37-0.39-0.34-0.1-0.71-0.21-1.11-0.33-0.17-0.05-0.36-0.11-0.55-0.16-0.24-0.07-0.49-0.15-0.74-0.22-1.47-0.46-3.16-0.99-4.86-1.55-0.29-0.1-0.59-0.2-0.88-0.3-0.02-0.01-0.04-0.02-0.06-0.02-2.36-0.84-4.84-1.83-7.28-3.03-0.09-0.06-0.18-0.12-0.26-0.17l-0.21-0.17c2.77 0.64 5.46 1.54 8.12 2.56 0.07 0.02 0.13 0.04 0.2 0.07z" fill="#8196AD"/>
 <path d="m1110.9 233.77c-56.36 103.83-302 330.78-326.46 359.37-0.06-0.02-0.14-0.04-0.22-0.07-0.24-0.08-0.54-0.2-0.9-0.34-0.57-0.23-1.14-0.46-1.7-0.7-0.74-0.32-1.49-0.64-2.23-0.95-0.56-0.23-1.14-0.47-1.74-0.72-0.24-0.1-0.49-0.2-0.74-0.3-0.75-0.31-1.51-0.61-2.27-0.9-0.07-0.03-0.13-0.05-0.2-0.07-2.93-1.14-5.9-2.16-8.12-2.56h-0.01c-1.02-0.41-2.15-0.51-3.07 0.1-0.02 0-0.03 0.01-0.04 0.02-0.63-0.39-1.25-0.78-1.88-1.17 0-0.01 0-0.01-0.01-0.01-0.1-0.06-0.2-0.12-0.3-0.19-0.71-0.47-1.56-0.99-2.6-1.57-0.03-0.02-0.06-0.04-0.09-0.05-0.54-0.32-1.09-0.64-1.64-0.95 63.16-61.19 301.03-291.07 335.21-370.8 13.97-34.49-37.54-50.09-74.01-55.99 0.24-0.22 0.48-0.44 0.72-0.67 0.01 0 0.02-0.01 0.03-0.02 4.06-3.06 7.03-7.11 8.89-11.6 1.74-3.73 2.64-7.83 2.47-12.51 60.15 9.97 112.74 41.59 80.91 102.65z" fill="#A5A5A5"/>
 <path d="m765.02 587.23c-0.61 0.03-1.2-0.11-1.7-0.52 0.61 0.34 1.13 0.52 1.7 0.52z" fill="#6F8EB1"/>
 <path d="m763.28 586.63c0.92-0.61 2.05-0.51 3.07-0.1-1.4-0.25-2.49-0.27-3.07 0.1z" fill="#6F8EB1"/>
 <path d="m765.02 587.23c-0.57 0-1.09-0.18-1.7-0.52-0.01 0-0.02-0.01-0.03-0.01-0.02-0.02-0.03-0.04-0.05-0.05 0.01-0.01 0.02-0.02 0.04-0.02 0.58-0.37 1.67-0.35 3.07-0.1h0.01l0.21 0.17 0.11 0.1c-0.15 0.07-0.3 0.13-0.46 0.19-0.29 0.1-0.59 0.18-0.89 0.22-0.11 0.01-0.21 0.02-0.31 0.02z" fill="#6F8EB1"/>
 <path d="m758.44 583.71c1.04 0.58 1.89 1.1 2.6 1.57-0.86-0.52-1.73-1.05-2.6-1.57z" fill="#497DBB"/>
 <path d="m723.78 135.32c-5.38-5.46-8.07-12.41-8.33-19.38 0.62 8.43 3.84 13.82 8.33 19.38z" fill="#A6A6A6"/>
 <path d="m715.44 115.94c0.26 6.97 2.95 13.92 8.33 19.38l0.01 0.01c0.11 0.14 0.22 0.28 0.34 0.42-29.84 1.22-59.55 6.02-88.18 14.49-91.97 29-116.5 74.26-202.02 414.93-0.6-0.24-1.19-0.47-1.79-0.71-5.48-2.19-11.77-4.66-17.91-7.14l-2.16-0.87-2.13-0.87c-0.28-0.11-0.56-0.23-0.83-0.34 80.02-330.44 115.67-386.92 192.51-420.75 38.44-16.61 88.3-23.85 113.83-24.66-0.14 2.21-0.13 4.24 0 6.11z" fill="#A6A6A6"/>
 <path d="m784.48 593.14c-32.39 127.41-125.89 88.53-195.86 128.91-17.89 11.55-31.33 33.16-32.88 42.02-12.84 57.51-51.3 117.22-76.57 156.81-200.09 307.33-351.7 462.09-360.08 634.54-1.2 28.94 2.98 69.63 27.64 84.52 59.4 39.28 187.94-57.76 249.42-101.1 412.13-294.86 656.7-553.28 772.79-130.04-11.43 2.9-22.19 8.24-33.86 10.15-97.34-330.85-224.94-216.03-666.24 110.83-136.54 98.26-256.17 189.44-337.28 141.94-41.31-22.85-49.34-73.78-47.79-121.14 10.88-188.14 184.37-365.85 371.23-657.32 13.96-22.05 41.45-65.4 48.8-89.82 10.09-38.54 16.26-46.71 19.1-56.28 8.5-45.99-25.17-39.93-53.91-47-9.26-2.59-42.63 5.88-66.64-5.06-32.54-13.07-34.52-44.74 3.43-141.24 1.09 0.46 2.2 0.92 3.33 1.38 0.27 0.11 0.55 0.23 0.83 0.34l2.13 0.87 2.16 0.87c6.14 2.48 12.43 4.95 17.91 7.14 2.26 0.91 4.38 1.77 6.3 2.56-22.43 59.26-24.48 77-25.92 93.5 9.77 7.59 36.68 4.53 52.22 3.71 46.45 6.16 69.24 9.1 88.88 40.53 38.33-35.94 102.72-35.23 152.08-54.02 25.71-9.38 38.96-43.76 45.76-70.21 2.99 1.12 5.2 2.19 6.9 3.13 0.03 0.01 0.06 0.03 0.09 0.05 0.87 0.52 1.74 1.05 2.6 1.57 0.1 0.07 0.2 0.13 0.3 0.19 0.01 0 0.01 0 0.01 0.01 0.78 0.5 1.39 0.92 1.93 1.22 0.01 0 0.02 0.01 0.03 0.01 0.5 0.41 1.09 0.55 1.7 0.52 0.1 0 0.2-0.01 0.31-0.02 0.3-0.04 0.6-0.12 0.89-0.22 0.16-0.06 0.31-0.12 0.46-0.19 0.05 0.02 0.1 0.05 0.15 0.07 1.38 0.88 4.25 1.99 7.28 3.03 0.02 0 0.04 0.01 0.06 0.02 0.29 0.1 0.59 0.2 0.88 0.3 1.72 0.6 3.36 1.11 4.86 1.55 0.25 0.07 0.5 0.15 0.74 0.22 0.19 0.05 0.38 0.11 0.55 0.16 0.4 0.12 0.77 0.23 1.11 0.33 0.71 0.21 1.36 0.41 1.95 0.59 0.08 0.031 0.16 0.051 0.22 0.07z" fill="#497DBB"/>
</svg>
